<?xml version="1.0" encoding="UTF-8"?> <!-- Generator: Adobe Illustrator 25.2.0, SVG Export Plug-In . SVG Version: 6.00 Build 0) --> <svg xmlns="http://www.w3.org/2000/svg" xmlns:xlink="http://www.w3.org/1999/xlink" version="1.1" id="Laag_1" x="0px" y="0px" viewBox="0 0 917.1 390" style="enable-background:new 0 0 917.1 390;" xml:space="preserve"> <style type="text/css"> .st0{fill:#FFFFFF;} .st1{opacity:0.7;fill:#FFFFFF;enable-background:new ;} .st2{opacity:0.2;fill:#FFFFFF;enable-background:new ;} .st3{opacity:0.8;fill:#FFFFFF;enable-background:new ;} </style> <path class="st0" d="M469.8,168.4H437c-2.9,0-4.6,1.4-4.6,4v0.4c0,2.7,1.8,4.6,4.6,4.6h11.4v35.2c0,2.9,1.7,4.8,4.4,4.8h1 c2.8,0,4.6-2,4.6-4.8v-35.2h11.4c2.8,0,4.6-1.9,4.6-4.6v-0.4C474.4,169.8,472.6,168.4,469.8,168.4z M514,208.4h-22.7v-12h16.9 c2.9,0,5.1-1.7,5.1-4.4v-0.2c0-1.5-1.1-4.4-5.1-4.4h-16.9v-10h22.2c2.9,0,4.8-1.8,4.8-4.5v-0.4c0-2.7-1.9-4-4.8-4h-26.8 c-3,0-5.4,2-5.4,5.1v38.1c0,3.1,2.4,5.8,5.4,5.8H514c2.9,0,4.3-2.2,4.3-5v-0.4C518.4,209.5,516.9,208.4,514,208.4L514,208.4z M551.9,170.9c-0.8-2.2-2.6-3.1-6.2-3.1c-3.5,0-5.3,0.9-6.2,3.1L523,213.4c-0.1,0.4-0.2,0.9,0.3,1.6c0.8,1.1,2.8,2.2,4.8,2.2 c1.7,0,3.9-0.6,5.2-4l3.8-9.8H554l3.8,9.7c1,2.7,3,4.1,5.5,4.1c2.1,0,4.2-1.2,4.9-2.3c0.5-0.7,0.4-1.3,0.3-1.6L551.9,170.9z M551.3,195.4h-11.5l5.7-15.1L551.3,195.4z M616,168.4h-1.8c-3.3,0-4.5,1.2-5.8,4.2l-9.9,22.2l-9.9-22.1c-1.2-2.7-2.2-4.2-5.9-4.2 h-1.9c-3.2,0-5.5,1.6-5.5,4.8v39.4c0,3.9,2.6,4.8,4.1,4.8h1.1c1.9,0,4.8-1.1,4.8-4.8v-28.2l7.6,17.8c0.9,1.9,1.6,3.8,5.6,3.8 c3.8,0,4.9-1.8,5.8-3.8l8-18v28.5c0,3.9,2.4,4.8,3.9,4.8h1c1.6,0,5.1-0.9,5.1-4.8v-39.4C622.4,170,619.4,168.4,616,168.4L616,168.4z M685.1,168.4h-0.9c-1.6,0-3.8,0.1-3.8,4v28.2l-21-29.2c-1.4-2-2.8-3-5.6-3h-1.2c-2.8,0-4.2,1.6-4.2,4.8v39.3c0,3.9,2.1,4.8,3.7,4.8 h0.8c2.7,0,4.5-1.9,4.5-4.8v-29.3l21.9,31.3c1.2,1.7,2,2.8,4.8,2.8h0.6c2.8,0,4.7-2.4,4.7-5.6v-39.3 C689.4,169.6,687.7,168.4,685.1,168.4z M706,168.4h-1c-2.7,0-4.6,1.2-4.6,4v40.1c0,2.9,1.9,4.8,4.6,4.8h1c2.8,0,4.4-1.9,4.4-4.8 v-40.1C710.4,169.6,708.8,168.4,706,168.4z M743.7,168.4h-1.1c-2.7,0-4.3,1.2-4.3,4V200c0,7.6-2.5,9.1-6.8,9.1 c-3.1,0-5.8-1.6-7.3-4.4c-0.2-0.4-0.7-0.8-1.5-0.6c-1,0.2-4,2-4,5.2c0,4.2,6.1,8.6,14.1,8.6c10.7,0,16.6-5.8,16.6-17.7v-27.6 C749.4,169.6,746.5,168.4,743.7,168.4L743.7,168.4z M795.6,168.4h-1.1c-2.7,0-4.1,1.2-4.1,4v16h-22v-16c0-2.9-1.8-4-4.6-4h-1.1 c-2.7,0-3.4,1.2-3.4,4v40.1c0,2.8,0.7,4.8,3.4,4.8h1.1c2.8,0,4.6-1.9,4.6-4.8v-16.2h22v16.2c0,2.8,1.5,4.8,4.1,4.8h1.1 c2.8,0,3.8-1.9,3.8-4.8v-40.1C799.4,169.6,798.4,168.4,795.6,168.4z M846.1,168.4H845c-2.7,0-4.6,1.2-4.6,4v24.1 c0,8.4-2.9,12.3-10,12.3c-7,0-10-4-10-12.2v-24.2c0-2.9-2-4-4.8-4h-1c-2.7,0-4.2,1.2-4.2,4v24.4c0,13.4,6.5,20.8,19.4,20.8 c13,0,19.6-7.5,19.6-21v-24.2C849.4,169.5,848.9,168.4,846.1,168.4L846.1,168.4z M866.7,168.4h-1c-2.7,0-3.3,1.2-3.3,4v40.1 c0,2.9,0.5,4.8,3.3,4.8h1c2.8,0,4.7-1.9,4.7-4.8v-40.1C871.4,169.6,869.5,168.4,866.7,168.4z M900.7,187.8l-0.9-0.2 c-6.3-1.5-9.1-2.3-9.1-6c0-3.6,3.3-5.9,8.4-5.9c4.6,0,9,2.2,11.4,5.7c0.1,0.2,0.6,0.7,1.5,0.4c1-0.3,4-2.2,4-5.2 c0-3.9-5.9-9.4-17-9.4c-10.5,0-17.8,6-17.8,14.6c0,11.1,10.1,13.4,15.5,14.7h0.2c6.5,1.5,10.5,2.7,10.5,6.7c0,5.3-5.6,6.1-8.9,6.1 c-5.3,0-10.2-2.5-13-6.6c-0.2-0.2-0.7-0.7-1.6-0.4c-1.3,0.4-3.9,2.4-3.9,5c0,4.4,6.4,10.4,18.5,10.4c11.4,0,18.5-5.7,18.5-15 C917.1,192.8,908.3,189.6,900.7,187.8L900.7,187.8z"></path> <path class="st0" d="M217,196.2h-0.1C216.8,196.2,217.5,196.2,217,196.2z"></path> <path class="st0" d="M236.2,196.4l7.8,35.1c1.3,6.6,7.2,11.5,14.3,11.2c7-0.3,12.8-6,13.2-13c0.1-1.8-0.1-3.5-0.7-5.1l15.1,14.5 c3,2.5,4.4,3.6,9.3,3.7c7.6,0.1,13.9-6.1,13.9-13.6c0-1.3-0.2-2.7-0.5-3.7l-9.6-44.9c-0.1-0.7-0.2-1.4-0.4-2v-0.1 c-1.7-5.9-7.3-10.2-13.9-9.9c-7,0.3-12.7,5.9-13.2,12.8c-0.2,2.3,0.3,4.5,1.1,6.5l-14.4-13.1c-2.5-2.9-6.3-3.4-10.5-3.4H217 c-7.6,0-14,4.6-14.1,12.2c-0.1,7.7,6.1,13.3,13.8,13.3L236.2,196.4L236.2,196.4z"></path> <path class="st1" d="M414.9,283.9c7.4-28.5,10.7-51.1,10.3-71c-0.4-21.6-5.4-40.4-15.1-57.4c-10-17.4-25.2-33.6-46.7-49.3 c-20.9-15.3-48.3-30.9-83.8-47.4C227.8,34.6,184,29.1,149.4,42.3c-17.9,6.9-33.4,18.8-46,35.6c-10,13.3-16.3,26.5-20.7,37.5 l-0.5,1.1v0.1l-0.4,1.1c-3.8,9.5-6.7,21.4-8.3,33.5c-2.1,15.7-2,31.7,0.1,47.4c2.6,18.8,8.2,36.7,16.7,53.4 c9.8,19.3,23.5,37,40.8,52.6c12,10.8,26.8,20.5,44.1,28.8c16.8,8.1,35.2,14.5,54.5,19.1c3.4,0.8,6.9,1.6,10.4,2.2 c16.9,3.3,33.8,5,49.9,5c18.8,0,36.7-2.3,52.4-6.8C380.9,341.9,406,318,414.9,283.9L414.9,283.9z M277.9,62.7 c35.3,16.4,62.5,31.8,83.1,47c20.9,15.4,35.8,31.1,45.5,48c9.4,16.4,14.1,34.5,14.6,55.4c0.4,19.5-2.8,41.7-10.1,69.8 c-8.5,32.5-32.6,55.4-69.7,66c-28.6,8.2-64.2,8.8-100.4,1.7c-3.4-0.7-6.8-1.4-10.2-2.2c-19-4.5-37-10.8-53.6-18.8 c-16.9-8.1-31.4-17.6-43.1-28.1c-17-15.2-30.4-32.5-40-51.4c-8.2-16.3-13.7-33.8-16.2-52c-2.1-15.3-2.2-30.9-0.1-46.2 c1.6-12.3,4.6-24.2,8.5-33.6c4.3-10.5,10.6-24.3,20.6-37.7c12.1-16.1,27-27.6,44.2-34.2c11.7-4.5,24.6-6.7,38.6-6.7 c9.4,0,19.3,1,29.6,3C237.3,46.2,257,52.9,277.9,62.7L277.9,62.7z"></path> <path class="st2" d="M469.5,219.9c-1.7-26.1-9.1-49.4-22.8-71.2c-28.6-45.7-85-84.2-172.5-117.8c-37.1-14.2-68.8-23.3-96.7-27.8 c-27.2-4.3-50.3-4.2-70.7,0.4C87.5,7.9,70.9,16.3,56.3,29.2C43.4,40.5,31.9,55.4,21.4,74.7L19.6,78c-20,38-24.9,83.5-13.7,128.3 c5.9,23.6,16,46.5,30.1,68c14.9,22.7,34.1,43.5,57.1,61.9c15.9,12.7,35.9,23.6,59.6,32.4c15.9,5.9,33.1,10.7,51,14.2 c7.5,1.5,15.2,2.7,22.9,3.8c17.2,2.3,34.3,3.5,51.2,3.5c9,0,17.9-0.3,26.8-1c26.4-2,50.7-6.7,72-14.2c43.8-15.4,72.3-41.3,82.2-74.9 C467.6,270.3,471.1,244.1,469.5,219.9L469.5,219.9z M227.2,381.7c-26.1-3.5-50.6-9.5-73-17.7c-23.2-8.6-42.8-19.2-58.3-31.6 c-22.6-18.1-41.4-38.5-56.1-60.8c-13.8-21-23.7-43.4-29.5-66.4c-11-44.2-6-89.1,14.2-126.4C35,59.3,46.4,44.3,59.3,33 c14-12.3,29.9-20.4,48.5-24.6c10.1-2.3,21-3.4,32.8-3.4c11.2,0,23.2,1,36.2,3.1c3.6,0.6,7.3,1.2,11,2c25,4.9,52.7,13.3,84.8,25.6 c86.5,33.2,142.2,71.1,170.2,115.8c13.2,21.1,20.4,43.6,22,68.8c1.5,23.6-1.9,49.2-10.5,78.2c-9.5,32-36.8,56.8-79.2,71.7 c-20.9,7.4-44.8,12.1-70.8,14C279.1,386,253.2,385.2,227.2,381.7L227.2,381.7z"></path> <path class="st0" d="M163.4,208.8c7.3,20,20.4,38.5,35.9,50.7c12.5,9.8,34.1,20.1,55,26.2c5.5,1.6,10.9,2.9,16.1,4 c9,1.8,17.4,2.7,25.2,2.7c9.8,0,18.5-1.4,26.2-4.2c7.8-2.8,14.4-7.1,19.6-12.8c5.6-6.1,9.6-13.9,11.9-23.1 c4.6-18.5,6.8-33.8,6.6-46.9c-0.2-14.9-3.3-27.3-9.6-37.9c-6-10.1-14.8-18.4-26.7-25.3c-12-6.9-26.9-12.3-45.8-16.4 c-32.9-7.3-56.4-9.1-73.7-5.9c-9.6,1.8-17.5,5.1-24.2,10.2c-6.4,4.8-11.6,11.1-15.8,19.2l-0.6,1.1l-0.5,1.1 C155.6,167.3,155.7,187.6,163.4,208.8L163.4,208.8z M275.9,135.8c17.9,3.9,31.9,9,43.1,15.4c10.5,6,18,13.1,23.1,21.7 c10.2,17.2,10.8,40.9,1.8,76.9c-1.9,7.5-5.1,13.7-9.5,18.6c-4.1,4.5-9.4,7.9-15.7,10.2c-8,2.9-17.8,4.1-29,3.4 c-10.1-0.6-21.1-2.6-32.7-6c-24.2-7.1-43-17.6-51.8-24.5c-14.2-11.1-26.1-27.9-32.7-46.2c-6.9-19-7-36.8-0.4-50.1 c3.6-7.2,8-12.7,13.5-16.7c5.5-4.1,12.1-6.9,20.2-8.4c5-0.9,10.6-1.4,16.8-1.4c11.6,0,25.5,1.6,42.5,5 C268.6,134.2,272.2,135,275.9,135.8L275.9,135.8z"></path> <path class="st3" d="M139.3,101.2c-8,7.7-14.9,17.5-21.1,29.9c-5.7,11.2-9,22.8-10.1,34.3c-0.9,10.4,0,21.1,2.8,31.8 c4.5,17.1,13.4,34.1,28.1,53.4c10.6,13.9,31.5,30.9,57.3,46.5c22.9,13.8,46.6,24.6,60.2,27.4c2.6,0.5,5.7,1.3,8.9,2.1l0.3-1.2 l-0.1,1.2c4.5,1.1,9.7,2.4,15.3,3.5c7.8,1.5,16.3,2.7,25.1,2.7c26.9,0,56.3-11.1,73.7-58.4c7.9-21.5,12-42.3,12.1-62 c0.1-21.1-4.3-40.3-13.1-57.3c-8.7-16.7-21.8-31-38.7-42.6c-18-12.3-40.7-21.5-67.4-27.4c-22.8-5-42.2-7.7-59.2-8.1 c-16.7-0.4-30.9,1.4-43.2,5.6C158.1,86.7,148,92.8,139.3,101.2L139.3,101.2z M114.6,166.1c1-10.7,4.1-21.4,9.4-31.8v-0.1 c5.9-11.6,12.3-20.8,19.8-28c8-7.8,17.3-13.3,28.2-16.9c11.6-3.9,25.1-5.6,41.1-5.2c16.6,0.4,35.5,3,58,7.9 c25.8,5.7,47.7,14.6,65.1,26.4c16,10.9,28.3,24.4,36.5,40.1c8.3,15.9,12.5,34,12.3,53.9c-0.1,18.9-4,38.9-11.6,59.6 c-5.9,16-13.7,28.6-23.1,37.4c-8,7.4-17.4,12.4-28.1,14.8c-19.8,4.4-40.2-0.6-55.2-4.3c-3.3-0.8-6.4-1.6-9.2-2.2 c-26.5-5.5-91.4-42.1-113.6-71.4c-14.1-18.6-22.6-34.8-26.9-50.9C114.6,185.5,113.8,175.7,114.6,166.1L114.6,166.1z"></path> <path class="st0" d="M481.4,242.5v-14c0-0.5,0.4-0.9,0.9-0.9h3.8c5.5,0,8.7,2.9,8.7,7.9s-3.3,8-8.8,8h-3.6 C481.8,243.4,481.4,243,481.4,242.5z M486,241.9c4.5,0,7-2.4,7-6.4s-2.6-6.5-7-6.5h-3v12.9H486z M503,242.7v-14.5 c0-0.5,0.2-0.8,0.7-0.8h0.2c0.5,0,0.7,0.3,0.7,0.8v14.5c0,0.5-0.2,0.8-0.7,0.8h-0.2C503.3,243.5,503,243.3,503,242.7z M526,241.9v-1 c-1,1.7-3,2.8-5.6,2.8c-4.6,0-7.5-3.5-7.5-8.2c0-4.9,3.3-8.3,7.9-8.3c3.8,0,5.9,2.2,5.9,3.1c0,0.9-1,1-1,1c-1-1.7-3-2.6-5-2.6 c-3.7,0-6.2,2.8-6.2,6.8c0,3.9,2.2,6.8,6,6.8c2.9,0,5-1.6,5.3-4v-1.4h-4.5c-0.6,0-0.9-0.2-0.9-0.7V236c0-0.5,0.3-0.7,0.9-0.7h4.7 c0.7,0,1.2,0.5,1.2,1.2v6.8c0,0-0.2,0.2-0.5,0.2S526,243.2,526,241.9L526,241.9z M536.1,242.7v-14.5c0-0.5,0.2-0.8,0.7-0.8h0.2 c0.5,0,0.7,0.3,0.7,0.8v14.5c0,0.5-0.2,0.8-0.7,0.8h-0.2C536.3,243.5,536.1,243.3,536.1,242.7z M545.3,228.4v-0.1 c0-0.5,0.3-0.7,0.8-0.7h11.6c0.5,0,0.8,0.2,0.8,0.7v0.1c0,0.4-0.3,0.7-0.8,0.7h-5v13.7c0,0.5-0.2,0.8-0.7,0.8h-0.2 c-0.5,0-0.7-0.2-0.7-0.8v-13.7h-5C545.6,229.1,545.3,228.8,545.3,228.4L545.3,228.4z M573.2,238.2h-6.8l-1.7,4.5 c-0.2,0.6-0.6,0.8-1,0.8c-0.5,0-1-0.4-0.9-0.5l5.8-15c0.2-0.4,0.5-0.6,1.3-0.6s1.1,0.2,1.3,0.6l5.8,15c0,0.1-0.4,0.5-1,0.5 c-0.4,0-0.8-0.2-1-0.8L573.2,238.2L573.2,238.2z M566.9,236.8h5.7l-2.9-7.5L566.9,236.8z M584.1,242.5v-14.3c0-0.5,0.2-0.8,0.7-0.8 h0.2c0.5,0,0.7,0.2,0.7,0.8v13.7h7.7c0.5,0,0.8,0.2,0.8,0.7v0.1c0,0.4-0.3,0.7-0.8,0.7H585C584.5,243.4,584.1,243,584.1,242.5z M610.8,242.7v-14.2c0-0.6,0.5-1.1,1.2-1.1h0.4c0.9,0,1.1,0.4,1.4,1.3l4.2,9.2l4.2-9.2c0.4-0.9,0.6-1.3,1.4-1.3h0.3 c0.7,0,1.2,0.4,1.2,1.1v14.2c0,0.5-0.2,0.8-0.7,0.8h-0.2c-0.5,0-0.7-0.2-0.7-0.8v-13.4l-4.2,9c-0.3,0.7-0.6,1.1-1.4,1.1 c-0.8,0-1.2-0.4-1.4-1.1l-4.1-9v13.4c0,0.5-0.2,0.8-0.7,0.8h-0.2C611,243.5,610.8,243.3,610.8,242.7z M642.8,238.2H636l-1.7,4.5 c-0.2,0.6-0.6,0.8-1,0.8c-0.5,0-1-0.4-0.9-0.5l5.8-15c0.2-0.4,0.5-0.6,1.3-0.6s1.1,0.2,1.3,0.6l5.8,15c0,0.1-0.4,0.5-1,0.5 c-0.4,0-0.8-0.2-1-0.8L642.8,238.2L642.8,238.2z M636.5,236.8h5.7l-2.9-7.5L636.5,236.8z M662.5,242.9l-5.1-6.2h-2v6 c0,0.4-0.2,0.8-0.7,0.8h-0.2c-0.5,0-0.7-0.2-0.7-0.8v-14.3c0-0.5,0.4-0.9,0.9-0.9h4.4c3.7,0,5.7,1.5,5.7,4.6c0,2.9-1.9,4.6-5.3,4.6 l5.1,6c0.1,0.1-0.3,0.8-1,0.8C663.2,243.5,662.9,243.4,662.5,242.9L662.5,242.9z M655.4,235.3h3.8c2.6,0,3.8-1.3,3.8-3.1 c0-2.1-1.3-3.1-3.9-3.1h-3.7L655.4,235.3L655.4,235.3z M672.5,242.7v-14.5c0-0.5,0.2-0.8,0.7-0.8h0.2c0.5,0,0.7,0.3,0.7,0.8v6.9 l7.3-7.1c0.4-0.4,0.7-0.5,1-0.5c0.9,0,0.9,0.9,0.8,0.9l-7.2,6.9l7.4,7.4c0,0,0,0.9-0.9,0.9c-0.4,0-0.6-0.1-0.9-0.4l-7.4-7.6v7.3 c0,0.5-0.2,0.8-0.7,0.8h-0.2C672.8,243.5,672.5,243.3,672.5,242.7L672.5,242.7z M691.1,242.5v-14c0-0.5,0.4-0.9,0.9-0.9h9.5 c0.5,0,0.8,0.2,0.8,0.7v0.1c0,0.5-0.3,0.7-0.8,0.7h-8.8v5.5h7c0.5,0,0.8,0.2,0.8,0.7v0.1c0,0.5-0.3,0.7-0.8,0.7h-7v5.9h8.9 c0.5,0,0.8,0.2,0.8,0.7v0.1c0,0.5-0.3,0.7-0.8,0.7H692C691.5,243.4,691.1,243,691.1,242.5z M709.1,228.4v-0.1c0-0.5,0.3-0.7,0.8-0.7 h11.6c0.5,0,0.8,0.2,0.8,0.7v0.1c0,0.4-0.3,0.7-0.8,0.7h-5v13.7c0,0.5-0.2,0.8-0.7,0.8h-0.2c-0.5,0-0.7-0.2-0.7-0.8v-13.7h-5 C709.4,229.1,709.1,228.8,709.1,228.4L709.1,228.4z M729.9,242.7v-14.5c0-0.5,0.2-0.8,0.7-0.8h0.2c0.5,0,0.7,0.3,0.7,0.8v14.5 c0,0.5-0.2,0.8-0.7,0.8h-0.2C730.2,243.5,729.9,243.3,729.9,242.7z M740.5,242.7v-14.2c0-0.6,0.3-1.1,0.9-1.1h0.4 c0.6,0,0.9,0.3,1.3,0.9l8.6,12.5v-12.6c0-0.5,0.2-0.8,0.7-0.8h0.2c0.5,0,0.7,0.2,0.7,0.8v14.2c0,0.7-0.3,1.1-0.9,1.1h-0.1 c-0.6,0-0.8-0.2-1.1-0.6l-9.1-13.2v13.1c0,0.5-0.2,0.8-0.7,0.8h-0.2C740.7,243.5,740.5,243.3,740.5,242.7L740.5,242.7z M774.3,241.9 v-1c-1,1.7-3,2.8-5.6,2.8c-4.6,0-7.5-3.5-7.5-8.2c0-4.9,3.3-8.3,7.9-8.3c3.8,0,5.9,2.2,5.9,3.1c0,0.9-1,1-1,1c-1-1.7-3-2.6-5-2.6 c-3.7,0-6.2,2.8-6.2,6.8c0,3.9,2.2,6.8,6,6.8c2.9,0,5-1.6,5.3-4v-1.4h-4.5c-0.6,0-0.9-0.2-0.9-0.7V236c0-0.5,0.3-0.7,0.9-0.7h4.7 c0.7,0,1.2,0.5,1.2,1.2v6.8c0,0-0.2,0.2-0.5,0.2S774.3,243.2,774.3,241.9L774.3,241.9z M793.2,242.5v-14c0-0.5,0.4-0.9,0.9-0.9h9.5 c0.5,0,0.8,0.2,0.8,0.7v0.1c0,0.5-0.3,0.7-0.8,0.7h-8.8v5.5h7c0.5,0,0.8,0.2,0.8,0.7v0.1c0,0.5-0.3,0.7-0.8,0.7h-7v5.9h8.9 c0.5,0,0.8,0.2,0.8,0.7v0.1c0,0.5-0.3,0.7-0.8,0.7h-9.6C793.7,243.4,793.2,243,793.2,242.5L793.2,242.5z M813,227.9l4.5,6.3l4.7-6.4 c0.3-0.4,0.5-0.5,0.8-0.5c0.6,0,0.9,0.7,0.8,0.8l-5.5,7.3l5.5,7.2c0.1,0.1-0.2,0.8-0.9,0.8c-0.3,0-0.7-0.2-0.9-0.5l-4.7-6.4 l-4.8,6.4c-0.3,0.4-0.5,0.5-0.8,0.5c-0.6,0-0.9-0.7-0.8-0.8l5.5-7.3l-5.3-7.2c-0.1-0.1,0.2-0.8,0.9-0.8 C812.4,227.4,812.8,227.6,813,227.9L813,227.9z M831.4,242.7v-14.3c0-0.5,0.4-0.9,0.9-0.9h4.1c3.7,0,5.8,1.7,5.8,4.8 c0,3.2-2.1,4.9-6,4.9h-3.1v5.5c0,0.4-0.2,0.8-0.7,0.8h-0.2C831.7,243.5,831.4,243.3,831.4,242.7z M833.1,235.8h3.3 c2.8,0,4.2-1.2,4.2-3.4s-1.4-3.4-4.1-3.4h-3.4V235.8L833.1,235.8z M849.9,242.5v-14c0-0.5,0.4-0.9,0.9-0.9h9.5 c0.5,0,0.8,0.2,0.8,0.7v0.1c0,0.5-0.3,0.7-0.8,0.7h-8.8v5.5h7c0.5,0,0.8,0.2,0.8,0.7v0.1c0,0.5-0.3,0.7-0.8,0.7h-7v5.9h8.9 c0.5,0,0.8,0.2,0.8,0.7v0.1c0,0.5-0.3,0.7-0.8,0.7h-9.6C850.3,243.4,849.9,243,849.9,242.5L849.9,242.5z M877.7,242.9l-5.1-6.2h-2v6 c0,0.4-0.2,0.8-0.7,0.8h-0.2c-0.5,0-0.7-0.2-0.7-0.8v-14.3c0-0.5,0.4-0.9,0.9-0.9h4.4c3.7,0,5.7,1.5,5.7,4.6c0,2.9-1.9,4.6-5.3,4.6 l5.1,6c0.1,0.1-0.3,0.8-1,0.8C878.4,243.5,878.1,243.4,877.7,242.9L877.7,242.9z M870.6,235.3h3.8c2.6,0,3.8-1.3,3.8-3.1 c0-2.1-1.3-3.1-3.9-3.1h-3.7L870.6,235.3L870.6,235.3z M886.2,228.4v-0.1c0-0.5,0.3-0.7,0.8-0.7h11.6c0.5,0,0.8,0.2,0.8,0.7v0.1 c0,0.4-0.3,0.7-0.8,0.7h-5v13.7c0,0.5-0.2,0.8-0.7,0.8h-0.2c-0.5,0-0.7-0.2-0.7-0.8v-13.7h-5C886.5,229.1,886.2,228.8,886.2,228.4 L886.2,228.4z M905.7,240.6c0-0.7,0.9-1.1,1-1c0.9,1.5,2.5,2.7,4.8,2.7c2.5,0,3.9-1.1,3.9-2.9c0-2.1-2.1-2.6-4.4-3.2 c-2.4-0.6-4.9-1.3-4.9-4.5c0-2.5,2.3-4.4,5.3-4.4c3.3,0,5.2,1.7,5.2,2.7c0,0.7-0.9,1.1-1,1c-0.7-1.3-2.3-2.3-4.2-2.3 c-2.2,0-3.7,1.2-3.7,2.9c0,2,1.7,2.5,4.1,3c2.5,0.6,5.2,1.5,5.2,4.7c0,2.7-2.2,4.5-5.5,4.5C908,243.7,905.7,241.7,905.7,240.6 L905.7,240.6z"></path> </svg> 